<?xml version="1.0" encoding="UTF-8" standalone="no"?>
<svg
   xmlns:dc="http://purl.org/dc/elements/1.1/"
   xmlns:cc="http://creativecommons.org/ns#"
   xmlns:rdf="http://www.w3.org/1999/02/22-rdf-syntax-ns#"
   xmlns:svg="http://www.w3.org/2000/svg"
   xmlns="http://www.w3.org/2000/svg"
   id="svg8"
   version="1.1"
   viewBox="0 0 210 297"
   height="297mm"
   width="210mm">
  <defs
     id="defs2" />
  <metadata
     id="metadata5">
    <rdf:RDF>
      <cc:Work
         rdf:about="">
        <dc:format>image/svg+xml</dc:format>
        <dc:type
           rdf:resource="http://purl.org/dc/dcmitype/StillImage" />
        <dc:title></dc:title>
      </cc:Work>
    </rdf:RDF>
  </metadata>
  <g
     id="layer1">
    <path
       style="fill:#fdfdfd;stroke-width:0.46076053"
       d="m 55.657002,155.8259 v -49.79837 h 53.956108 53.9561 v 49.79837 49.79835 h -53.9561 -53.956108 z"
       id="path3728" />
    <path
       style="fill:#606060;stroke-width:0.46076053"
       d="m 63.812751,155.71523 0.0024,-26.89111 1.07674,1.21613 c 3.713076,4.19378 26.06424,28.1716 26.280842,28.19349 0.145402,0.0147 6.270433,-6.44705 13.611177,-14.35945 7.34073,-7.91241 13.42671,-14.3862 13.52438,-14.3862 0.0976,0 0.17499,3.73487 0.17181,8.29973 l -0.006,8.29973 -4.4306,4.80568 -4.43058,4.80567 -0.23981,-1.86339 -0.23981,-1.86339 -8.81839,9.57938 c -4.850122,5.26864 -8.976977,9.52202 -9.170796,9.45196 -0.19382,-0.0701 -4.31896,-4.4004 -9.166977,-9.62297 l -8.814572,-9.49558 -0.126117,15.36072 -0.126118,15.36072 h -4.550078 -4.550078 l 0.0024,-26.89112 z m 55.152749,15.33218 v -11.55895 l 4.17864,-4.59786 c 2.29826,-2.52882 4.34859,-4.59786 4.55629,-4.59786 0.20772,0 0.37765,1.5175 0.37765,3.37223 v 3.37224 l 6.11504,-0.18875 c 6.78727,-0.20949 8.10419,-0.60498 10.5398,-3.16522 4.56479,-4.79838 2.34417,-15.1425 -3.5435,-16.50634 -0.6166,-0.14284 -1.11391,-0.38749 -1.10514,-0.5437 0.009,-0.1562 1.26984,-1.56453 2.80237,-3.12963 l 2.78642,-2.84561 1.72039,0.98131 c 9.2885,5.29827 10.71801,20.34983 2.64858,27.88761 -3.93794,3.67848 -8.18219,4.93073 -16.71185,4.93073 h -5.25211 v 9.07436 9.07438 h -4.55629 -4.55629 z"
       id="path3726" />
  </g>
</svg>
